<?xml version="1.0" encoding="UTF-8"?>
<svg id="Layer_2" data-name="Layer 2" xmlns="http://www.w3.org/2000/svg" viewBox="0 0 541.17 243.38">
  <defs>
    <style>
      .cls-1 {
        fill: #012eed;
      }
    </style>
  </defs>
  <g id="Layer_1-2" data-name="Layer 1">
    <g>
      <path class="cls-1" d="M244.51,0c7.9-.24,11.15,10.1,4.51,14.38-2.06,1.33-4.05,2.74-5.88,4.34-66.31,58.12-62.97,154.37,4.14,210.58.08.06.15.13.23.19,5.82,4.76,2.26,14.18-5.26,13.88-67.87-2.7-143.98-16.65-198.18-54.95C-43.5,126.54,13.93,61.17,90.56,30.28,137.32,11.44,192.84,1.58,244.51,0Z"/>
      <path class="cls-1" d="M377.7,184.79c-.08.35.23.67.58.61,7.79-1.25,16.11-8.49,24.32-24.05,4.17-7.9,6.81-19.61,7.74-32.51-15.62,12.01-27.66,32.75-32.64,55.95Z"/>
      <path class="cls-1" d="M344.31,102.43c.23-.25.38-.55.71-.59.12-.01.23-.06.31-.15,1.83-1.87,4.32-4.57,5.98-6.58,2.09-2.53,7.35-11.1,9.1-12.54.05-.04.1-.1.13-.16,5.15-9.71,9.16-20.23,11.64-31.53.08-.36-.23-.67-.59-.61-1.09.2-2.2.46-3.34.8-20.19,5.99-28.58,28.98-29.11,54.3,0,.44.52.68.85.39,1.19-1.08,2.38-2.18,3.74-2.69.1-.04.18-.1.24-.18.11-.16.22-.32.34-.45Z"/>
      <path class="cls-1" d="M341.28,132.06c4.59,25.86,16.03,48.79,30.05,52.89.37.11.72-.22.64-.59-2.35-11.21-6.4-22.38-11.29-30.88-5.93-10.3-11.64-15.66-18.56-21.87-.36-.32-.92-.01-.84.46Z"/>
      <path class="cls-1" d="M410.23,106.2c-2.24-28.05-12.42-54.81-32.25-56.29-.32-.02-.58.26-.53.58l.69,4.89s0,.05.01.07c5.64,20.26,17.33,39.31,32.08,50.75Z"/>
      <path class="cls-1" d="M401.78,117.44c-.19-.25-2.28-.3-2.76-.41-10.39-2.41-19.2-13.88-22.69-26.4,0-.02-.01-.05-.01-.07l-1.2-8.58-.25.22c-.1.08-.16.2-.17.33-.71,7.26-2.88,13.86-6.01,19.78-.03.05-.07.1-.12.14-.8.71-3.03,4.35-3.92,5.43-.71.85-1.75,1.99-2.54,2.8-.07.07-.16.1-.25.14-.11.04-.17.15-.26.24-.07.07-.13.17-.19.26-.97.34-1.75,1.38-2.63,1.97-2.13,1.45-4.57,2.53-6.9,3.26-.62.19-3.67.71-3.81.89-.29.39.07.44.26.54.98.48,2.83.62,4.01,1.01,1.35.45,2.78,1.17,3.88,1.74.57.3,1.15.74,1.78.79.11,0,.22.05.3.12,4.13,3.8,7.21,6.04,10.43,11.64,3.05,5.3,5.35,12.98,5.8,19.7.02.31.32.55.61.46.35-.11.09-.59.18-1.42,1.56-14.6,9.69-27.98,20.19-32.54,1.69-.73,3.96-.88,5.72-1.4.14-.04.92-.17.56-.64Z"/>
      <path class="cls-1" d="M413.69,20.81c-6.61,3.37-.05,7.51,1.87,10.76,16.26,27.61,28.9,49.58,33.07,73.65,5.76,5.95,13.24,10.41,21.46,11.81.65.11,3.49.16,3.75.41.48.47-.57.59-.77.64-2.4.52-5.48.67-7.78,1.4-5.79,1.85-11.05,5.15-15.4,9.39-.89,13.93-4.6,29.15-11.89,46.83-7.1,17.21-22.11,28.73-22.23,47.16,36.21-5.51,95.49-31.97,114.49-64.34,43.86-74.71-54.49-129.08-116.55-137.72Z"/>
    </g>
  </g>
</svg>